<svg xmlns="http://www.w3.org/2000/svg" xmlns:xlink="http://www.w3.org/1999/xlink" width="512" height="512" viewBox="0 0 512 512"><defs><style>.cls-1{fill:url(#radial-gradient);}.cls-2{fill:url(#radial-gradient-2);}.cls-3{opacity:0.8;}.cls-4{fill:#b92700;}.cls-5{fill:#fff;}.cls-6{fill:#3c840d;opacity:0.11;}</style><radialGradient id="radial-gradient" cx="256" cy="256" r="256" gradientUnits="userSpaceOnUse"><stop offset="0" stop-color="#f8ac36"/><stop offset="0.1" stop-color="#f1a32b"/><stop offset="0.28" stop-color="#e9981e"/><stop offset="0.51" stop-color="#e49216"/><stop offset="1" stop-color="#e39014"/></radialGradient><radialGradient id="radial-gradient-2" cx="256" cy="256" r="256" gradientUnits="userSpaceOnUse"><stop offset="0.82" stop-color="#ffb135"/><stop offset="1" stop-color="#de8a0e"/></radialGradient></defs><title>Artboard 1</title><g id="Dough"><g id="Dough-2" data-name="Dough"><circle class="cls-1" cx="256" cy="256" r="256"/><path class="cls-2" d="M256,30a226.06,226.06,0,0,1,88,434.25A226.06,226.06,0,0,1,168,47.75,224.5,224.5,0,0,1,256,30m0-30C114.62,0,0,114.62,0,256S114.62,512,256,512,512,397.38,512,256,397.38,0,256,0Z"/></g></g><g id="Sauce"><g id="Tomato_sauce" data-name="Tomato sauce" class="cls-3"><path class="cls-4" d="M252.77,198a145.62,145.62,0,0,1,15.47,1.19l-16-2.14a147.16,147.16,0,0,1,36.46,10.1l-14.33-6.05a158.6,158.6,0,0,1,34,20l-12.14-9.38a163,163,0,0,1,28.06,28.11l-9.39-12.14A156.74,156.74,0,0,1,334.47,261l-6.05-14.33a141.21,141.21,0,0,1,9.65,33.88l-2.14-15.95a90.07,90.07,0,0,1,.32,21.95l2.15-16a72.61,72.61,0,0,1-4.77,17.62l6-14.34a90,90,0,0,1-11.11,18.63L338,280.36c-10.45,13.34-23.52,24.51-36.77,35L313.32,306a56.5,56.5,0,0,1-11,6.84l14.33-6.05a33.73,33.73,0,0,1-6.05,1.75l15.95-2.15a33.73,33.73,0,0,1-7,.05l15.95,2.15c-8.83-1.25-17.43-4.56-25.93-7.19s-16.89-5.28-25.3-8c-17.08-5.62-34-11.68-50.58-18.66l14.33,6.05c-18.23-7.75-37.12-16.18-53-28.13L207.2,262a67.91,67.91,0,0,1-11.76-11.47l9.38,12.14a50.18,50.18,0,0,1-5.34-9L205.53,268a50.14,50.14,0,0,1-3.18-11.27l2.15,16a86.57,86.57,0,0,1,.4-22.51l-2.14,16c1-7.1,1.85-14.55,4.26-21.32l-6,14.33a27.27,27.27,0,0,1,2.15-4.07l-9.38,12.14a21.12,21.12,0,0,1,3-3.09l-12.14,9.38a22.38,22.38,0,0,1,3.47-2l-14.34,6.05a29.81,29.81,0,0,1,6.61-1.73l-15.95,2.15c13.65-1.49,28.51.28,42.06,2.1l-15.95-2.15a121.46,121.46,0,0,1,29.19,7.52l-14.33-6.05A77.07,77.07,0,0,1,221.89,289l-12.14-9.38c5.95,4.81,10.72,10.58,15.39,16.61,8,10.27,15.91,17.59,26.73,25.34,4.89,3.5,9.92,5.51,15.52,7.87a89.08,89.08,0,0,0,31.45,7.14c6.5.39,13.49-1.09,19.8-2.24a30.33,30.33,0,0,0,5.19-1.38c12.92-4.81,21.66-9.82,32.09-19a30.12,30.12,0,0,0,3.23-3.45,132,132,0,0,0,10.94-14.39,35.47,35.47,0,0,0,2.24-4.33c2.68-5.93,5.66-12,7.46-18.31,2.17-7.54,2.95-15.75,3.46-23.54.6-9.24-1.37-19-2.95-28-2.88-16.4-9.72-32.67-15.32-48.31-7.25-20.29-15.31-40.49-25-59.75-9.8-19.48-22.05-37.7-39.42-51.12-4.47-3.46-8.43-6.75-13.5-9.11-13.68-6.38-22.95-9.2-38.17-10.13-8.56-.53-17.58,1.07-25.89,3-8.77,2-17.92,6.6-25.81,10-13.94,6-28.07,12.31-40.66,20.89-21.07,14.36-37.91,31.47-50.81,53.61a336.42,336.42,0,0,0-26.66,56.62c-4.38,12.47-6.22,26.16-6.85,39.26-.66,13.68,1.82,27.6,3.8,41,2.64,17.91,6.11,35.73,9.22,53.56,2.82,16.17,5,32.66,9.55,48.47a178.8,178.8,0,0,0,13.61,33.78,69.53,69.53,0,0,0,5.42,8.74c4.86,6.64,9.69,13.65,15.66,19.39A103.54,103.54,0,0,0,149.21,447a98.27,98.27,0,0,0,10.71,4.78c4.18,1.77,8.26,3.79,12.72,4.72,17.56,3.66,34.45,3.61,51.86-1.11A147.09,147.09,0,0,0,258,441.18c10.4-5.91,20.06-13.59,29.11-21.29a117.14,117.14,0,0,0,15.57-16.23c7.64-9.59,15.23-19.18,20.89-30.09a241.82,241.82,0,0,0,20.68-56.27c7.28-31.23,10.79-63,21.1-93.5,2.65-7.82,5.61-15.53,8.81-23.14L368.11,215c8.86-20.7,19.49-41.79,33.25-59.71L392,167.42a15.63,15.63,0,0,1,2.17-2.21L382,174.59a8.62,8.62,0,0,1,2.61-1.47l-14.33,6,1.27-.31L355.61,181a6.67,6.67,0,0,1,2.44.07l-15.95-2.15,1.16.34-14.33-6a9.34,9.34,0,0,1,2.19,1.2L319,165a23,23,0,0,1,3.83,3.94l-9.38-12.14c3.61,5.18,5.88,11.24,8.49,17l9.39,20.56c5.94,13,12.08,26,17.68,39.14l-6.05-14.33c4.69,11.26,8.61,22.74,10.34,34.85l-2.14-15.95a95.66,95.66,0,0,1-.12,24l2.14-16A114.42,114.42,0,0,1,345.25,274l6.05-14.33a136.25,136.25,0,0,1-16.56,27.95l9.38-12.15a193.13,193.13,0,0,1-33.73,33.09l12.14-9.38c-9.93,7.66-20.62,16.23-32.21,21.21l14.33-6a32.12,32.12,0,0,1-6.46,1.67l15.95-2.14a36.4,36.4,0,0,1-7.08-.17L323,315.81c-7.62-1.29-14.81-4.32-22-6.95l-22.82-8.31a60.58,60.58,0,0,0-31.9,0,45.29,45.29,0,0,0-20.41,10.74,45.3,45.3,0,0,0-15.45,16.84,59.65,59.65,0,0,0-8.19,30.28,195,195,0,0,0-1.64,23,143.22,143.22,0,0,0,1.75,18c.84,6.25,1.43,12.55,3.55,18.54,5.58,15.74,11.88,26.91,22.8,39.51,4.85,5.59,11.23,9.92,17.14,14.22,6.21,4.51,13.68,7.12,20.78,9.83s15.22,3.25,22.64,3.86c7.94.66,16.63-.85,24.23-2.55s14.77-5.19,21.53-8.49a57.44,57.44,0,0,0,9.42-5.9c9.33-7,18-13.74,25.44-22.7s14.45-18,20.85-27.53c10.58-15.78,18.11-32.95,25.22-50.52a199,199,0,0,0,11.57-40.23,296.84,296.84,0,0,0,4.49-36c.64-12.56-1.08-24.89-3-37.29-3.63-23.08-15.57-42.85-30.08-60.62-7.17-8.77-16.15-15.25-25.12-22.11a104.9,104.9,0,0,0-16.06-10.18,203.89,203.89,0,0,0-54-18.69c-20.3-3.89-40.93-6-61.41-8.71l-49.55-6.5c-14.65-1.92-29.34-4-44.14-4.21-11.83-.12-23.45,1.54-35.15,3.29A92.14,92.14,0,0,0,92.7,132c-7.33,2.94-15,5.82-21.89,9.74s-13.25,9.17-19.3,14.19c-4.31,3.58-7.31,7.69-10.77,12.17C33.83,177,30,184.32,26,195.36c-2.75,7.55-3.4,16-4.15,23.89A54.69,54.69,0,0,0,21.94,230c1.21,11.81,2.83,23.62,6.51,34.94a159.15,159.15,0,0,0,13.22,30.77c3.83,6.61,8.87,12.56,13.6,18.5a55.15,55.15,0,0,0,6.66,7.17c13,11.39,24.58,17.92,40.84,23.82,11.13,4,23.64,5.1,35.33,5.88,18.05,1.2,36.42-1.28,54.18-4.06a121,121,0,0,0,18.88-4.43,159.34,159.34,0,0,0,31.12-13.49,136.7,136.7,0,0,0,26.18-20.2C279.37,298.2,286,281.75,286,266.5c0-14.72-6.54-32.29-17.57-42.43C257,213.58,242,205.78,226,206.5s-30.81,6.15-42.43,17.57a77.31,77.31,0,0,1-7,6.14l12.14-9.38A82.21,82.21,0,0,1,172.84,230l14.33-6.05a120,120,0,0,1-29.88,7.85l16-2.15c-13.74,1.8-28,2.58-41.77.8l15.95,2.14a65.75,65.75,0,0,1-15.77-4.27L146,234.36a50.74,50.74,0,0,1-9.61-5.73L148.52,238a54.3,54.3,0,0,1-8.39-8.62l9.38,12.14a74,74,0,0,1-8.38-14.7l6.05,14.34a107,107,0,0,1-7.29-26.26l2.15,16a54.3,54.3,0,0,1-.17-11.61l-2.14,15.95a38.66,38.66,0,0,1,2-7.94l-6,14.33a34.92,34.92,0,0,1,4-6.85l-9.38,12.14a44.9,44.9,0,0,1,6.7-6.59l-12.15,9.39a68.77,68.77,0,0,1,14.11-8l-14.33,6.05a91.58,91.58,0,0,1,22.39-5.8l-15.95,2.15c20.95-2.49,41.93.69,62.68,3.41,23.87,3.13,47.75,6.21,71.61,9.41l-16-2.15c19,2.59,38.1,5.77,55.9,13.28L291,262A105.43,105.43,0,0,1,313.18,275L301,265.66A86,86,0,0,1,315,279.58l-9.38-12.15a73.44,73.44,0,0,1,8.54,14.41l-6.05-14.33a81.48,81.48,0,0,1,5.42,20.29l-2.15-15.95a129.57,129.57,0,0,1-.54,32.09L312.94,288a204.09,204.09,0,0,1-13.7,50.12l6.05-14.33a204,204,0,0,1-26,44.69l9.38-12.14a107.9,107.9,0,0,1-16.95,17.88l12.14-9.39A53.23,53.23,0,0,1,273,371.35l14.34-6.05a37.7,37.7,0,0,1-7.27,2.08L296,365.24a31.87,31.87,0,0,1-7.56.06l16,2.14a29.78,29.78,0,0,1-6.55-1.89l14.33,6.05a34.85,34.85,0,0,1-5.82-3.53l12.14,9.38a40.76,40.76,0,0,1-5.89-5.93L322,383.66a47.28,47.28,0,0,1-5.72-9.92l6,14.34a58.12,58.12,0,0,1-3.25-12.59l2.15,16c-1.36-11-.26-22.05,1-33l-75.95,57.86c10.9,4,21.78,8,32.72,11.91,9.15,3.23,18.39,4.47,28.09,5.49,5.25.55,9.66-.18,15.05-.9,5.22-.7,9.62-1.09,14.44-2.75,14.33-4.95,26.28-12.46,38.42-21.19A376,376,0,0,0,408.84,382,178.78,178.78,0,0,0,429,360.29c9-11.54,17.88-22.88,24.17-36.18,6.15-13,12.17-26.81,14.89-41.08s4.85-29.38,3.21-44c-1.76-15.68-4.21-30.25-9.86-44.93-5.53-14.36-11.92-28.38-18.3-42.37l-14.29-31.3c-6.38-14-11.87-27.15-22.95-38.44a70.68,70.68,0,0,0-47.8-20.87c-18.37-.74-37,7.38-49.88,20.32-10.1,10.11-18.29,24.3-25.5,36.71-12.64,21.74-22.86,45.11-31.29,68.77C243.74,208.32,239,230.36,235,252.72s-8,44.61-16.78,65.53l6.05-14.33a126,126,0,0,1-15.8,27l9.39-12.14a119.19,119.19,0,0,1-19.3,19.26l12.15-9.38a111,111,0,0,1-23.44,13.93l14.34-6.05a68.31,68.31,0,0,1-16.51,4.64l16-2.15a46.89,46.89,0,0,1-10,0l16,2.14a38.15,38.15,0,0,1-8-2.12l14.34,6.05a39.79,39.79,0,0,1-8.14-4.89l12.15,9.38a56.32,56.32,0,0,1-7.83-8l9.38,12.14a78.7,78.7,0,0,1-9.61-16.38l6,14.33c-7.27-17.25-9.81-36-13-54.34-3.73-21.39-8-42.77-11-64.27l2.14,16c-1.25-9.65-1.81-19.25-.64-28.94l-2.15,15.95a100.2,100.2,0,0,1,7-24.06l-6.05,14.33c7.12-16.42,15.48-33.54,26.35-47.83l-9.38,12.14A92.18,92.18,0,0,1,224,175.48l-12.14,9.38c14.12-10.76,30.58-18.17,46.83-25.1l-14.34,6a64.23,64.23,0,0,1,14.21-4.25l-15.95,2.14a38.17,38.17,0,0,1,7.25-.08l-15.95-2.14a32.18,32.18,0,0,1,7,1.87l-14.33-6.05a38.41,38.41,0,0,1,7.43,4.41l-12.14-9.38a59.16,59.16,0,0,1,9.39,9.72L221.8,149.9c10,13.37,17.18,29.08,23.66,44.4L239.41,180c5.17,12.39,9.75,25,14.09,37.7s9.56,25.59,11.52,38.94l-2.14-16a51,51,0,0,1,.09,12l2.14-15.95a41.89,41.89,0,0,1-2.17,8.15L269,230.57a35.19,35.19,0,0,1-4.08,7.22l9.38-12.14a29.18,29.18,0,0,1-4.78,4.71L281.66,221a29.13,29.13,0,0,1-3.45,2L292.55,217a25.53,25.53,0,0,1-5.81,1.65l15.95-2.15a28.76,28.76,0,0,1-6.15-.14l15.95,2.14a36.11,36.11,0,0,1-6-1.73l14.33,6.05a43,43,0,0,1-8.35-4.85l12.14,9.38c-10.9-8.65-17.2-21.56-27.68-30.66a144.32,144.32,0,0,0-55.17-30.47c-16.83-5-34.78-6.69-52.23-7.82-21.48-1.39-42.39-.81-62,9.46-18,9.42-29.77,26.21-36.16,45.07-2.32,6.85-3.24,14.18-4.26,21.32-1.63,11.31-4,23.48-3,35.07,1.55,17.64,4.41,30.52,12.4,46.31,16.28,32.23,51,50.94,82.67,65.1S243,406.27,276,416.52c23.19,7.21,46.83,14.3,71.12,6.51,21.43-6.88,38.24-21.48,54.81-36.14a201.47,201.47,0,0,0,34.34-39.53c12.85-19.36,18.62-41.55,20.35-64.46.9-11.93-1.19-24.43-3.11-36.07A135.86,135.86,0,0,0,448.68,227a216.58,216.58,0,0,0-20.42-45.66C391.1,120.13,324.62,79.74,252.77,78c-15.15-.36-31.8,7-42.43,17.57C199.94,106,192.1,123.08,192.77,138c.69,15.52,5.79,31.61,17.57,42.43s26,17.18,42.43,17.57Z"/></g></g><g id="Cheese"><g id="Mozarella"><g id="Mozzarella" class="cls-3"><path class="cls-5" d="M255.8,364.52c-3.41,13.17,1.31,25.18,12.37,32.79a54.93,54.93,0,0,0,6.26,3.53c1,.53,2,1.15,3.07,1.67q2.88,1.89-1.62-1.46a17.76,17.76,0,0,1,1.76,1.71l15.91-38.41q-16.26.66-32.53.56c-13.83-.08-26.56,14.57-21.69,28.48l5.83,16.71c3.88,11.08,15.58,19.63,27.68,15.71,11-3.55,19.87-15.78,15.72-27.68l-5.84-16.7L261,409.91q16.28.1,32.53-.56c19.46-.8,29.69-24,15.91-38.41a48.57,48.57,0,0,0-13.32-9.46c-1.37-.69-2.72-1.64-4.12-2.22q-2.26-1.49,2.76,2.13l2.47,3.27,1.64,3.85q-1.12,14.1.31,8c2.95-11.38-3.75-25-15.72-27.68-11.74-2.67-24.52,3.53-27.68,15.72Z"/></g><g id="Mozzarella-2" data-name="Mozzarella" class="cls-3"><path class="cls-5" d="M304.8,125.52c-3.41,13.17,1.31,25.18,12.37,32.79a54.93,54.93,0,0,0,6.26,3.53c1,.53,2,1.15,3.07,1.67q2.88,1.89-1.62-1.46a17.76,17.76,0,0,1,1.76,1.71l15.91-38.41q-16.26.66-32.53.56c-13.83-.08-26.56,14.57-21.69,28.48l5.83,16.71c3.88,11.08,15.58,19.63,27.68,15.71,11-3.55,19.87-15.78,15.72-27.68l-5.84-16.7L310,170.91q16.28.1,32.53-.56c19.46-.8,29.69-24,15.91-38.41a48.57,48.57,0,0,0-13.32-9.46c-1.37-.69-2.72-1.64-4.12-2.22q-2.26-1.49,2.76,2.13l2.47,3.27,1.64,3.85q-1.12,14.1.31,8c2.95-11.38-3.75-24.95-15.72-27.68-11.74-2.67-24.52,3.53-27.68,15.72Z"/></g><g id="Mozzarella-3" data-name="Mozzarella" class="cls-3"><path class="cls-5" d="M370.8,242.52c-3.41,13.17,1.31,25.18,12.37,32.79a54.93,54.93,0,0,0,6.26,3.53c1,.53,2,1.15,3.07,1.67q2.88,1.89-1.62-1.46a17.76,17.76,0,0,1,1.76,1.71l15.91-38.41q-16.26.66-32.53.56c-13.83-.08-26.56,14.57-21.69,28.48l5.83,16.71c3.88,11.08,15.58,19.63,27.68,15.71,11-3.55,19.87-15.78,15.72-27.68l-5.84-16.7L376,287.91q16.28.1,32.53-.56c19.46-.8,29.69-24,15.91-38.41a48.57,48.57,0,0,0-13.32-9.46c-1.37-.69-2.72-1.64-4.12-2.22q-2.26-1.48,2.76,2.13l2.47,3.27,1.64,3.85q-1.12,14.1.31,8c2.95-11.38-3.75-24.95-15.72-27.68-11.74-2.67-24.52,3.53-27.68,15.72Z"/></g><g id="Mozzarella-4" data-name="Mozzarella" class="cls-3"><path class="cls-5" d="M145.8,142.52c-3.41,13.17,1.31,25.18,12.37,32.79a54.93,54.93,0,0,0,6.26,3.53c1,.53,2,1.15,3.07,1.67q2.88,1.89-1.62-1.46a17.76,17.76,0,0,1,1.76,1.71l15.91-38.41q-16.26.66-32.53.56c-13.83-.08-26.56,14.57-21.69,28.48l5.83,16.71c3.88,11.08,15.58,19.63,27.68,15.71,11-3.55,19.87-15.78,15.72-27.68l-5.84-16.7L151,187.91q16.28.1,32.53-.56c19.46-.8,29.69-24,15.91-38.41a48.57,48.57,0,0,0-13.32-9.46c-1.37-.69-2.72-1.64-4.12-2.22q-2.27-1.48,2.76,2.13l2.47,3.27,1.64,3.85q-1.12,14.1.31,8c3-11.38-3.75-24.95-15.72-27.68-11.74-2.67-24.52,3.53-27.68,15.72Z"/></g><g id="Mozzarella-5" data-name="Mozzarella" class="cls-3"><path class="cls-5" d="M128.8,295.52c-3.41,13.17,1.31,25.18,12.37,32.79a54.93,54.93,0,0,0,6.26,3.53c1,.53,2,1.15,3.07,1.67q2.88,1.89-1.62-1.46a17.76,17.76,0,0,1,1.76,1.71l15.91-38.41q-16.26.66-32.53.56c-13.83-.08-26.56,14.57-21.69,28.48l5.83,16.71c3.88,11.08,15.58,19.63,27.68,15.71,11-3.55,19.87-15.78,15.72-27.68l-5.84-16.7L134,340.91q16.28.1,32.53-.56c19.46-.8,29.69-24,15.91-38.41a48.57,48.57,0,0,0-13.32-9.46c-1.37-.69-2.72-1.64-4.12-2.22q-2.27-1.49,2.76,2.13l2.47,3.27,1.64,3.85q-1.12,14.1.31,8c3-11.38-3.75-25-15.72-27.68-11.74-2.67-24.52,3.53-27.68,15.72Z"/></g></g></g><g id="Spices"><g id="Oregano"><path class="cls-6" d="M228.16,139.36l7.43.07a1.73,1.73,0,0,0-.81-1q-1.8-1.53-3.69-3t-3.79-2.84a1.73,1.73,0,0,0-1.17-.54l-7-.4a1.75,1.75,0,0,0,.75,1c1.16,1.05,2.33,2.09,3.53,3.09s2.39,2,3.63,3A1.75,1.75,0,0,0,228.16,139.36Z"/><path class="cls-6" d="M229.34,141.4l7.47.08a2,2,0,0,0-.82-1.12c-1.23-1.17-2.49-2.3-3.77-3.42s-2.57-2.22-3.89-3.29a1.94,1.94,0,0,0-1.21-.67l-7-.42a2,2,0,0,0,.76,1.14c1.17,1.21,2.37,2.4,3.59,3.55s2.45,2.32,3.71,3.44A1.86,1.86,0,0,0,229.34,141.4Z"/><path class="cls-6" d="M231.28,141.08l6.76-.78c.65-.07-.77-1.5-1.32-1.39l-5.82,1.15C230.16,140.21,230.79,141.14,231.28,141.08Z"/><path class="cls-6" d="M230.38,146.27l7.3-.18c.69,0-1.36-2.92-2.05-2.89l-6.92.32C227.93,143.55,229.77,146.28,230.38,146.27Z"/><path class="cls-6" d="M228.65,141.9l7.45,0a2.51,2.51,0,0,0-.88-1.3q-2-2.11-4.05-4.15t-4.16-4a2.51,2.51,0,0,0-1.3-.88l-6.93-.45a2.4,2.4,0,0,0,.82,1.33q1.88,2.19,3.84,4.31t3.95,4.2A2.45,2.45,0,0,0,228.65,141.9Z"/><path class="cls-6" d="M228.5,140.1l7.45.07a2.08,2.08,0,0,0-.89-1.12c-1.31-1.17-2.64-2.3-4-3.41s-2.71-2.22-4.1-3.29a2.15,2.15,0,0,0-1.27-.66l-7-.43a2.07,2.07,0,0,0,.83,1.15q1.88,1.82,3.82,3.55c1.29,1.18,2.6,2.32,3.94,3.44A2,2,0,0,0,228.5,140.1Z"/><path class="cls-6" d="M229.3,143.74l7.34,0a1,1,0,0,0-.37-.82c-.69-.81-1.41-1.6-2.15-2.37-.59-.62-2-2.61-3.06-2.66l-6.9-.35a.92.92,0,0,0,.31.84c.62.86,1.28,1.7,2,2.51C226.88,141.4,228.34,143.74,229.3,143.74Z"/><path class="cls-6" d="M231.51,141.89l7.13-.22c.66,0-.32-.89-.32-.89-.41-.37-1.35-1.21-2-1.17l-6.66.38C229,140,230.91,141.91,231.51,141.89Z"/><path class="cls-6" d="M229.49,143.75l7.41,0a1.82,1.82,0,0,0-.66-1.14q-1.61-1.83-3.28-3.58c-1.1-1.19-2.24-2.35-3.39-3.48a1.85,1.85,0,0,0-1.1-.73l-6.83-.42a1.8,1.8,0,0,0,.6,1.17c1,1.26,2,2.51,3,3.73s2.08,2.45,3.16,3.64A1.78,1.78,0,0,0,229.49,143.75Z"/><path class="cls-6" d="M228.39,140.93l7.44,0a2.2,2.2,0,0,0-.86-1.2c-1.3-1.29-2.62-2.54-4-3.77s-2.7-2.47-4.08-3.66a2.32,2.32,0,0,0-1.27-.77l-7-.44a2.17,2.17,0,0,0,.8,1.24q1.84,2,3.77,3.92t3.89,3.81A2.27,2.27,0,0,0,228.39,140.93Z"/><path class="cls-6" d="M229.9,142.92l7.41,0a1.63,1.63,0,0,0-.66-1q-1.58-1.6-3.21-3.14c-1.09-1-2.19-2-3.32-3a1.63,1.63,0,0,0-1.07-.59l-6.88-.41a1.57,1.57,0,0,0,.59,1.06c1,1.11,2,2.21,3,3.28s2.05,2.14,3.11,3.17A1.62,1.62,0,0,0,229.9,142.92Z"/><path class="cls-6" d="M231,146.81l7.44-.14c.72,0-1.24-2.91-1.91-2.89l-7.24.27C228.52,144.08,230.38,146.82,231,146.81Z"/><path class="cls-6" d="M265.52,106.29l5-9.28a2.4,2.4,0,0,0-1.46.36q-2.53,1.11-5,2.32c-1.68.79-3.33,1.61-5,2.46a2.27,2.27,0,0,0-1.2.9l-5.09,8.8a2.24,2.24,0,0,0,1.46-.31q2.56-1,5.09-2.13t5-2.27A2.27,2.27,0,0,0,265.52,106.29Z"/><path class="cls-6" d="M266.28,107.82l5-9.26a2,2,0,0,0-1.37.14q-2.44.72-4.86,1.53c-1.61.53-3.22,1.09-4.81,1.68a2,2,0,0,0-1.18.71l-5,8.73a1.92,1.92,0,0,0,1.37-.08q2.46-.6,4.88-1.32c1.63-.45,3.24-1,4.84-1.47A2,2,0,0,0,266.28,107.82Z"/><path class="cls-6" d="M268.19,103.87l4.73-9.13c.35-.68-1.22.12-1.1.05-.68.37-1.92.91-2.31,1.64l-4.61,8.81c-.34.65,1.12,0,1.05,0C266.58,105,267.84,104.54,268.19,103.87Z"/><path class="cls-6" d="M269.23,109.58l3.88-9.26c.32-.75-1.75-.54-1.9-.11L268,109.39C267.77,110.06,269.05,110,269.23,109.58Z"/><path class="cls-6" d="M265.18,108.55l4.94-9.23a2.15,2.15,0,0,0-1.45.12q-2.6.66-5.15,1.44c-1.72.5-3.42,1-5.12,1.6a2.16,2.16,0,0,0-1.27.69l-5,8.67a2.13,2.13,0,0,0,1.45-.06c1.73-.37,3.46-.77,5.18-1.22s3.45-.88,5.15-1.37A2.15,2.15,0,0,0,265.18,108.55Z"/><path class="cls-6" d="M265.69,107l4.94-9.27a2.38,2.38,0,0,0-1.51.3c-1.79.67-3.57,1.38-5.33,2.11s-3.52,1.48-5.26,2.26a2.45,2.45,0,0,0-1.29.86L252.16,112a2.45,2.45,0,0,0,1.52-.25q2.71-.9,5.38-1.9t5.31-2.06A2.44,2.44,0,0,0,265.69,107Z"/><path class="cls-6" d="M266.5,108.85l4.81-9c.4-.73-1.49-.14-1.54-.13-.9.22-1.8.47-2.69.74a4,4,0,0,0-1.35.56l-5.17,9c-.16.28,3.17-.25,3.05-.23C264.25,109.69,266.11,109.59,266.5,108.85Z"/><path class="cls-6" d="M268.72,105.54l4.73-9.14c.38-.73-1.39.08-1.29,0-.75.31-2.62.87-3,1.66l-4.67,8.79c-.37.69,1.3,0,1.25.06C266.39,106.72,268.34,106.26,268.72,105.54Z"/><path class="cls-6" d="M266.19,109.43l4.88-9.19a1.26,1.26,0,0,0-1.06-.07c-1.27.22-2.53.47-3.78.76s-2.5.57-3.74.91a1.27,1.27,0,0,0-.94.52L256.66,111a1.24,1.24,0,0,0,1,.14c1.26-.14,2.52-.31,3.78-.53C262.14,110.46,265.72,110.32,266.19,109.43Z"/><path class="cls-6" d="M265.21,107.8l5-9.25a2.36,2.36,0,0,0-1.47.21c-1.74.56-3.46,1.15-5.18,1.78s-3.43,1.25-5.12,1.93a2.24,2.24,0,0,0-1.27.77L252.07,112a2.35,2.35,0,0,0,1.47-.15q2.62-.73,5.21-1.57t5.17-1.71A2.19,2.19,0,0,0,265.21,107.8Z"/><path class="cls-6" d="M266.82,108.62l4.88-9.2a1.3,1.3,0,0,0-1.09,0c-1.29.29-2.57.61-3.85,1s-2.55.71-3.8,1.12a1.32,1.32,0,0,0-.94.57l-4.93,8.64a1.27,1.27,0,0,0,1.08.07c1.3-.21,2.58-.46,3.86-.74C262.76,109.88,266.31,109.58,266.82,108.62Z"/><path class="cls-6" d="M269.8,110.11l3.77-9.3c.31-.77-1.69-.6-1.83-.19l-3.09,9.24C268.43,110.52,269.63,110.53,269.8,110.11Z"/><path class="cls-6" d="M279.1,164.17l2-6.49a2.41,2.41,0,0,0-1.4.66c-1.57,1.08-3.12,2.18-4.65,3.32s-3.06,2.27-4.55,3.45a2.35,2.35,0,0,0-1,1.14l-2.26,6a2.41,2.41,0,0,0,1.42-.6q2.4-1.5,4.74-3.11c1.57-1,3.12-2.14,4.66-3.25A2.4,2.4,0,0,0,279.1,164.17Z"/><path class="cls-6" d="M279.71,165.78l2-6.47a1.93,1.93,0,0,0-1.32.4q-2.25,1.15-4.45,2.42t-4.37,2.56a2,2,0,0,0-1,.93l-2.21,5.87a1.86,1.86,0,0,0,1.32-.33c1.53-.69,3-1.42,4.52-2.19s3-1.52,4.45-2.33A2,2,0,0,0,279.71,165.78Z"/><path class="cls-6" d="M281.36,161.37l1.8-6.24c.23-.8-1.32.48-1.18.36-.67.56-2,1.46-2.27,2.35L278,163.62c-.22.75,1.24-.28,1.15-.22C279.71,163,281.13,162.16,281.36,161.37Z"/><path class="cls-6" d="M282.48,166.77l.84-6.23c.11-.82-1.76-.18-1.77.25l-.17,6C281.36,167.45,282.42,167.23,282.48,166.77Z"/><path class="cls-6" d="M278.62,166.62l2-6.44a2.09,2.09,0,0,0-1.38.4c-1.59.78-3.15,1.59-4.7,2.43s-3.11,1.69-4.63,2.57a2.15,2.15,0,0,0-1.1.93l-2.2,5.83A2.17,2.17,0,0,0,268,172q2.42-1,4.78-2.19c1.58-.75,3.15-1.52,4.71-2.33A2.11,2.11,0,0,0,278.62,166.62Z"/><path class="cls-6" d="M279.22,164.93l2-6.48a2.52,2.52,0,0,0-1.45.6c-1.65,1-3.28,2.06-4.89,3.14s-3.23,2.14-4.81,3.26a2.44,2.44,0,0,0-1.12,1.1l-2.25,5.92a2.55,2.55,0,0,0,1.47-.54q2.52-1.41,5-2.91c1.65-1,3.29-2,4.91-3A2.58,2.58,0,0,0,279.22,164.93Z"/><path class="cls-6" d="M279.82,166.78l2-6.34c.26-.8-1.47.18-1.47.18-.8.4-1.58.82-2.36,1.27a3.5,3.5,0,0,0-1.13.81l-2.19,5.91c-.29.77,1.44,0,1.48-.06q1.24-.48,2.46-1.05A3.5,3.5,0,0,0,279.82,166.78Z"/><path class="cls-6" d="M281.94,163.11l1.86-6.3c.24-.81-1.43.41-1.33.34-.72.49-2.52,1.45-2.82,2.36l-1.89,5.82c-.25.77,1.35-.22,1.3-.19C279.71,164.77,281.71,163.91,281.94,163.11Z"/><path class="cls-6" d="M279.64,167.3,281.5,161a1.15,1.15,0,0,0-1,.14c-1.14.45-2.27.94-3.38,1.46-.76.35-3.7,1.23-4.07,2.28l-2,5.67a1.13,1.13,0,0,0,1-.06c1.16-.37,2.31-.77,3.44-1.2C276.07,169,279.36,168.25,279.64,167.3Z"/><path class="cls-6" d="M278.71,165.82l2-6.45a2.24,2.24,0,0,0-1.4.5q-2.39,1.33-4.73,2.78t-4.66,2.91a2.28,2.28,0,0,0-1.09,1l-2.23,5.87A2.25,2.25,0,0,0,268,172q2.43-1.22,4.82-2.54c1.6-.87,3.19-1.76,4.75-2.69A2.27,2.27,0,0,0,278.71,165.82Z"/><path class="cls-6" d="M280.19,166.48l1.95-6.37a1.25,1.25,0,0,0-1.05.19c-1.17.53-2.33,1.08-3.47,1.68-.84.42-3.77,1.42-4.18,2.54l-2.11,5.73a1.2,1.2,0,0,0,1-.12c1.2-.43,2.37-.91,3.54-1.41C276.59,168.43,279.88,167.5,280.19,166.48Z"/><path class="cls-6" d="M283.09,167.28l.54-6.2c.07-.84-1.7-.24-1.69.14l.13,6C282.08,167.83,283,167.76,283.09,167.28Z"/><path class="cls-6" d="M343.39,210.88l6.61,4.48a1.62,1.62,0,0,0,0-1.24c-.33-1.48-.71-2.94-1.11-4.4s-.81-2.92-1.27-4.36a1.64,1.64,0,0,0-.61-1.09l-6.06-4.49a1.59,1.59,0,0,0,0,1.23c.27,1.47.57,2.94.9,4.4s.67,2.93,1.06,4.37A1.55,1.55,0,0,0,343.39,210.88Z"/><path class="cls-6" d="M344.15,213.19l6.66,4.5a1.86,1.86,0,0,0-.08-1.35c-.39-1.6-.83-3.2-1.3-4.79s-.93-3.17-1.45-4.74a1.9,1.9,0,0,0-.65-1.18l-6.11-4.54a1.83,1.83,0,0,0,0,1.34q.48,2.41,1.08,4.8c.37,1.6.78,3.18,1.23,4.76A1.87,1.87,0,0,0,344.15,213.19Z"/><path class="cls-6" d="M344,214.06l6.66,3.32c.64.31.44-1.42,0-1.61l-6.24-2.57C343.83,213,343.54,213.83,344,214.06Z"/><path class="cls-6" d="M343.66,218.58l6.61,4.28c.64.42.25-1.2.25-1.22-.13-.67-.31-2.72-1-3.15l-6.18-4.11c-.6-.4-.38,1-.37,1.14C343.07,216.09,343.08,218.21,343.66,218.58Z"/><path class="cls-6" d="M343.58,213.87l6.68,4.47a2.52,2.52,0,0,0-.07-1.6c-.38-1.94-.8-3.88-1.26-5.8s-.9-3.86-1.41-5.77a2.6,2.6,0,0,0-.65-1.47l-6-4.53a2.54,2.54,0,0,0,0,1.59q.45,2.93,1,5.83t1.16,5.8A2.58,2.58,0,0,0,343.58,213.87Z"/><path class="cls-6" d="M343.63,211.69l6.63,4.47a1.94,1.94,0,0,0-.07-1.38c-.39-1.66-.81-3.3-1.27-4.94s-.92-3.28-1.43-4.9a2,2,0,0,0-.65-1.22l-6.06-4.53a2,2,0,0,0,0,1.38q.46,2.49,1,5t1.2,4.92A1.94,1.94,0,0,0,343.63,211.69Z"/><path class="cls-6" d="M343.49,216.05l6.63,4.35a1.1,1.1,0,0,0,.09-1c-.19-1.16-.41-2.31-.67-3.46-.21-.92-.4-3.59-1.33-4.27l-6.07-4.42a1.1,1.1,0,0,0-.15,1c.11,1.16.27,2.32.45,3.47C342.56,212.49,342.62,215.48,343.49,216.05Z"/><path class="cls-6" d="M344.78,214.61l6.73,4.18c.56.35.2-2.14-.31-2.45l-6.67-3.93C343.93,212.05,344.32,214.32,344.78,214.61Z"/><path class="cls-6" d="M344,216l6.66,4.45a2,2,0,0,0,0-1.39q-.51-2.51-1.12-5t-1.27-4.95a2,2,0,0,0-.61-1.25l-6-4.49a2,2,0,0,0-.05,1.38c.25,1.67.53,3.34.85,5s.64,3.32,1,5A1.94,1.94,0,0,0,344,216Z"/><path class="cls-6" d="M343.46,212.7l6.65,4.47a2.22,2.22,0,0,0-.05-1.48q-.56-2.7-1.21-5.37T347.49,205a2.3,2.3,0,0,0-.63-1.35l-6.05-4.52a2.27,2.27,0,0,0,0,1.48q.43,2.7,1,5.38t1.12,5.36A2.2,2.2,0,0,0,343.46,212.7Z"/><path class="cls-6" d="M344.37,215l6.64,4.44a1.64,1.64,0,0,0,0-1.23c-.35-1.46-.73-2.91-1.15-4.35s-.83-2.88-1.3-4.3a1.6,1.6,0,0,0-.61-1.07l-6-4.48a1.61,1.61,0,0,0,0,1.22c.27,1.46.57,2.91.91,4.36s.67,2.89,1.06,4.32A1.59,1.59,0,0,0,344.37,215Z"/><path class="cls-6" d="M344.29,219.22l6.63,4.33c.64.41.23-1.19.23-1.18-.14-.68-.35-2.57-1-3l-6.23-4.18c-.6-.4-.35,1-.34,1.11C343.65,216.87,343.71,218.84,344.29,219.22Z"/><path class="cls-6" d="M405.48,173.06l9.31-3a1.9,1.9,0,0,0-1.15-.7q-2.29-.87-4.64-1.63c-1.56-.53-3.12-1-4.7-1.48a1.82,1.82,0,0,0-1.33-.13l-9.06,2.59a1.82,1.82,0,0,0,1.1.74c1.51.63,3,1.23,4.55,1.79s3.06,1.14,4.6,1.65A1.81,1.81,0,0,0,405.48,173.06Z"/><path class="cls-6" d="M406.7,174.86l9.33-3a2,2,0,0,0-1.12-.82q-2.31-1.12-4.67-2.14c-1.56-.69-3.13-1.36-4.72-2a2,2,0,0,0-1.36-.27l-9,2.58a2,2,0,0,0,1.08.86q2.23,1.2,4.53,2.31t4.61,2.17A2,2,0,0,0,406.7,174.86Z"/><path class="cls-6" d="M408.55,173.23l9.25-3.3c.51-.18-.35-.64-.39-.66a2.37,2.37,0,0,0-1.6-.26l-8.64,3.22C406.16,172.6,408.1,173.39,408.55,173.23Z"/><path class="cls-6" d="M408.36,179l9.25-3.25c.75-.26-1.6-2.17-2.13-2l-9.12,3.35C405.61,177.41,407.85,179.19,408.36,179Z"/><path class="cls-6" d="M405.86,175.33l9.3-3a2.41,2.41,0,0,0-1.2-1q-2.49-1.38-5-2.67t-5.08-2.53a2.46,2.46,0,0,0-1.47-.42l-9,2.53a2.42,2.42,0,0,0,1.16,1q2.4,1.49,4.87,2.86c1.63.94,3.27,1.85,4.94,2.73A2.36,2.36,0,0,0,405.86,175.33Z"/><path class="cls-6" d="M405.83,173.75l9.3-3a2.19,2.19,0,0,0-1.23-.79c-1.65-.7-3.32-1.37-5-2s-3.36-1.27-5.06-1.85a2.14,2.14,0,0,0-1.44-.23l-9,2.56a2.09,2.09,0,0,0,1.19.83q2.42,1.14,4.88,2.18c1.64.72,3.29,1.39,4.95,2A2.2,2.2,0,0,0,405.83,173.75Z"/><path class="cls-6" d="M406.83,176.82l9.2-3c.23-.08-3.16-2.2-3.07-2.15-.69-.38-2.49-1.76-3.44-1.48l-8.95,2.62c-.25.08,3,2.41,2.93,2.35C404.06,175.47,406,177.11,406.83,176.82Z"/><path class="cls-6" d="M409.17,174.47l9-3.1c.69-.24-.78-.78-.72-.76-.64-.23-1.87-.78-2.58-.54l-8.65,3c-.64.22.6.78.6.79C407.35,174.07,408.56,174.68,409.17,174.47Z"/><path class="cls-6" d="M406.85,176.92l9.25-3a1.72,1.72,0,0,0-.91-.87q-1.94-1.23-3.93-2.37c-1.32-.78-2.66-1.52-4-2.24a1.67,1.67,0,0,0-1.2-.35l-8.84,2.54a1.64,1.64,0,0,0,.85.91q1.84,1.33,3.77,2.57c1.27.84,2.55,1.66,3.86,2.44A1.67,1.67,0,0,0,406.85,176.92Z"/><path class="cls-6" d="M405.63,174.49l9.3-3a2.32,2.32,0,0,0-1.2-.87c-1.63-.8-3.28-1.58-4.94-2.32s-3.32-1.49-5-2.19a2.25,2.25,0,0,0-1.44-.32l-9,2.54a2.29,2.29,0,0,0,1.15.92q2.38,1.31,4.82,2.51t4.89,2.38A2.23,2.23,0,0,0,405.63,174.49Z"/><path class="cls-6" d="M407.33,176.15l9.25-3a1.52,1.52,0,0,0-.9-.78c-1.28-.71-2.58-1.39-3.89-2s-2.62-1.3-4-1.89a1.55,1.55,0,0,0-1.17-.26l-8.9,2.57a1.53,1.53,0,0,0,.86.83c1.22.77,2.47,1.51,3.74,2.21s2.52,1.42,3.81,2.08A1.53,1.53,0,0,0,407.33,176.15Z"/><path class="cls-6" d="M409,179.53l9.27-3.24c.75-.26-1.61-2.2-2.14-2l-9.15,3.33C406.18,177.89,408.44,179.71,409,179.53Z"/><path class="cls-6" d="M244.71,344.48,238,341.16a2.89,2.89,0,0,0,.28,1.65q1,3,2,5.87t2.18,5.82a2.75,2.75,0,0,0,.83,1.45l6,3.46a2.7,2.7,0,0,0-.2-1.65c-.55-2-1.14-4-1.76-5.93s-1.24-3.93-1.91-5.88A2.83,2.83,0,0,0,244.71,344.48Z"/><path class="cls-6" d="M245.51,346.81l-6.65-3.34a1.71,1.71,0,0,0,.14,1.27c.47,1.49,1,3,1.51,4.43s1.07,2.94,1.66,4.39a1.67,1.67,0,0,0,.7,1.06l6.06,3.42a1.68,1.68,0,0,0-.07-1.26c-.39-1.5-.82-3-1.28-4.46s-.91-3-1.42-4.42A1.69,1.69,0,0,0,245.51,346.81Z"/><path class="cls-6" d="M244,341l-6.38-3.1c-.8-.39.06,1.66,0,1.64.33.94.69,1.87,1.07,2.79a4.33,4.33,0,0,0,.72,1.38l6.09,3.23c.75.4-.05-2.08-.11-2.31C245.17,343.75,244.9,341.44,244,341Z"/><path class="cls-6" d="M243.51,345.22l-6.37-2c-.65-.2-.21,1.36.27,1.47l5.83,1.38A.46.46,0,0,0,243.51,345.22Z"/><path class="cls-6" d="M245.1,347.79l-6.65-3.33a2,2,0,0,0,.25,1.38q.92,2.4,1.94,4.77t2.07,4.71a2,2,0,0,0,.81,1.14l6.08,3.45a2,2,0,0,0-.19-1.37q-.81-2.43-1.71-4.82T245.85,349A2,2,0,0,0,245.1,347.79Z"/><path class="cls-6" d="M245.07,345.65l-6.69-3.31a2.57,2.57,0,0,0,.25,1.58q.92,2.82,1.94,5.61c.67,1.87,1.36,3.72,2.09,5.57a2.64,2.64,0,0,0,.82,1.38l6,3.45a2.55,2.55,0,0,0-.18-1.58q-.79-2.85-1.69-5.67c-.58-1.88-1.19-3.76-1.83-5.62A2.62,2.62,0,0,0,245.07,345.65Z"/><path class="cls-6" d="M244.32,346.77l-6.58-3.31c-.78-.39.19,1.56.13,1.43q.56,1.16,1.17,2.28a3.24,3.24,0,0,0,.76,1.1l6.21,3.39c.75.42-.06-1.51,0-1.42-.3-.78-.63-1.56-1-2.33A3.15,3.15,0,0,0,244.32,346.77Z"/><path class="cls-6" d="M245,342.62l-6.53-3.13c-.72-.35-.08,1.33-.08,1.35.22.69.69,3,1.43,3.33l6.05,3.07c.67.34.23-1.2.21-1.29C246,345.36,245.69,342.93,245,342.62Z"/><path class="cls-6" d="M245,348,238.74,345c-.91-.44.37,2.09.32,2,.49,1.12,1,2.24,1.55,3.34a6.43,6.43,0,0,0,1,1.66l6,3.22c.2.11.29.17.32-.12a6.7,6.7,0,0,0-.83-2.68c-.39-1-.79-2.09-1.25-3.11C245.64,348.8,245.46,348.22,245,348Z"/><path class="cls-6" d="M244.93,346.73l-6.67-3.31a2.35,2.35,0,0,0,.28,1.48c.63,1.75,1.3,3.48,2,5.21s1.41,3.44,2.16,5.15a2.32,2.32,0,0,0,.83,1.26l6.06,3.46a2.35,2.35,0,0,0-.2-1.49c-.56-1.76-1.15-3.52-1.77-5.26s-1.25-3.48-1.92-5.21A2.38,2.38,0,0,0,244.93,346.73Z"/><path class="cls-6" d="M245.31,347.08l-6.53-3.16a1,1,0,0,0,.05.9c.34,1,.73,2,1.14,3s.9,3.12,1.89,3.66l6,3.24a1,1,0,0,0,0-.9c-.27-1-.58-2.05-.92-3.06C246.69,350,246.23,347.53,245.31,347.08Z"/><path class="cls-6" d="M244.06,345.54l-6.25-1.92c-.64-.19-.73.81-.26.93l6.13,1.64C244.05,346.29,244.54,345.68,244.06,345.54Z"/><path class="cls-6" d="M197.09,358.94l-8.5,6.14a2.22,2.22,0,0,0,1.36.61c1.78.47,3.56.9,5.36,1.3s3.59.8,5.4,1.14a2.24,2.24,0,0,0,1.49,0l8.29-5.57a2.32,2.32,0,0,0-1.33-.67c-1.75-.54-3.5-1.05-5.27-1.52s-3.54-.95-5.32-1.37A2.23,2.23,0,0,0,197.09,358.94Z"/><path class="cls-6" d="M197.86,360.54l-8.52,6.13a1.62,1.62,0,0,0,1.17.42c1.49.23,3,.42,4.5.58s3,.31,4.53.41a1.63,1.63,0,0,0,1.23-.16l8.36-5.65a1.63,1.63,0,0,0-1.14-.48c-1.47-.29-3-.54-4.44-.76s-3-.44-4.46-.6A1.68,1.68,0,0,0,197.86,360.54Z"/><path class="cls-6" d="M194.2,356.6,186,362.78c-.56.41,2.91,1.71,3.48,1.28l7.93-5.93C198,357.66,194.7,356.22,194.2,356.6Z"/><path class="cls-6" d="M193.64,362.5l-8.3,6.26c-.45.35.58.52.62.52a2.72,2.72,0,0,0,1.76-.22l8.09-6.26c.43-.33-.51-.51-.57-.52A2.38,2.38,0,0,0,193.64,362.5Z"/><path class="cls-6" d="M197.34,361.14l-8.51,6.14a2.24,2.24,0,0,0,1.44.39c1.82.17,3.65.31,5.48.41s3.65.2,5.49.25a2.32,2.32,0,0,0,1.47-.21l8.4-5.64a2.26,2.26,0,0,0-1.42-.43c-1.8-.24-3.61-.45-5.43-.61s-3.63-.34-5.45-.46A2.24,2.24,0,0,0,197.34,361.14Z"/><path class="cls-6" d="M197.51,359.67,189,365.81a2.26,2.26,0,0,0,1.38.55c1.8.38,3.6.73,5.42,1s3.62.62,5.44.88a2.3,2.3,0,0,0,1.49,0l8.32-5.57a2.31,2.31,0,0,0-1.36-.61q-2.66-.68-5.34-1.26T199,359.7A2.24,2.24,0,0,0,197.51,359.67Z"/><path class="cls-6" d="M195.59,361.56l-8.44,6.12c-.81.59,2,.52,1.76.52,1.13,0,2.25,0,3.38,0a5.51,5.51,0,0,0,1.76-.2l8.42-5.77c.81-.56-1.92-.62-1.74-.61-1.12-.07-2.25-.12-3.38-.14A5.45,5.45,0,0,0,195.59,361.56Z"/><path class="cls-6" d="M194.93,358.13l-8.16,6.18c-.53.4,2.61,1.34,3.16.92l7.75-6C198.29,358.78,195.4,357.77,194.93,358.13Z"/><path class="cls-6" d="M196.83,362.14l-8.2,5.93c-.93.68,2.65.46,2.37.47,1.51,0,3-.07,4.53-.14a9.71,9.71,0,0,0,2.34-.26l8.6-5.87a1.25,1.25,0,0,0-1-.31c-1.27-.08-2.53-.12-3.8-.13C200.54,361.81,197.88,361.38,196.83,362.14Z"/><path class="cls-6" d="M197.22,360.39l-8.51,6.14a2.3,2.3,0,0,0,1.44.47c1.85.28,3.7.53,5.56.73s3.71.42,5.57.58a2.42,2.42,0,0,0,1.51-.12l8.37-5.6a2.3,2.3,0,0,0-1.42-.53q-2.73-.53-5.49-.95c-1.84-.29-3.68-.56-5.53-.78A2.26,2.26,0,0,0,197.22,360.39Z"/><path class="cls-6" d="M197.06,361.35l-8.34,6.12a1,1,0,0,0,.91.32c.82.07,1.64.12,2.47.14,1,.05,2.05.07,3.07.08a8.06,8.06,0,0,0,2.14-.13l8.47-5.84a1,1,0,0,0-.89-.37c-1.14-.16-2.29-.27-3.44-.35C200.5,361.24,198,360.67,197.06,361.35Z"/><path class="cls-6" d="M193.44,362.85l-7.34,6.21c-.79.66,1.18.83,1.53.51l6.77-6.17C195,362.88,193.81,362.54,193.44,362.85Z"/><path class="cls-6" d="M210.59,301,206,305.87a2.17,2.17,0,0,0,1.42.34c1.78.11,3.57.18,5.35.22s3.57.08,5.36.07a2.19,2.19,0,0,0,1.43-.26L224,302a2.15,2.15,0,0,0-1.38-.41c-1.77-.2-3.54-.36-5.31-.49s-3.54-.26-5.31-.33A2.13,2.13,0,0,0,210.59,301Z"/><path class="cls-6" d="M211.22,302.51l-4.65,4.9a1.63,1.63,0,0,0,1.23.18c1.52-.09,3-.21,4.55-.37s3-.32,4.53-.53a1.7,1.7,0,0,0,1.18-.41l4.57-4.34a1.59,1.59,0,0,0-1.21-.24c-1.51,0-3,.06-4.51.15s-3,.16-4.51.3A1.59,1.59,0,0,0,211.22,302.51Z"/><path class="cls-6" d="M207.22,299.13l-4.26,5c-.5.58,2.77,1.1,3.15.63l3.83-4.8C210.47,299.28,207.56,298.74,207.22,299.13Z"/><path class="cls-6" d="M207,305.14l-4.46,5c-.4.46.74.39.77.39a3.22,3.22,0,0,0,1.87-.59l4.29-5c.37-.44-.68-.4-.72-.4A3,3,0,0,0,207,305.14Z"/><path class="cls-6" d="M210.63,303.1,206,308a2.36,2.36,0,0,0,1.51.1q2.78-.28,5.54-.69t5.52-.84a2.33,2.33,0,0,0,1.43-.49l4.61-4.34a2.29,2.29,0,0,0-1.49-.16c-1.85.12-3.69.26-5.53.45s-3.69.37-5.52.61A2.33,2.33,0,0,0,210.63,303.1Z"/><path class="cls-6" d="M211,301.63l-4.62,4.92a2.19,2.19,0,0,0,1.45.26c1.81,0,3.62,0,5.43-.05s3.62-.11,5.43-.21a2.26,2.26,0,0,0,1.43-.34l4.54-4.26a2.21,2.21,0,0,0-1.43-.33c-1.79-.1-3.59-.17-5.39-.2s-3.6-.07-5.4-.05A2.23,2.23,0,0,0,211,301.63Z"/><path class="cls-6" d="M208.88,303.8l-4.54,4.87c-.7.76,2.16.11,1.93.15,1.17-.22,2.33-.47,3.5-.73a6.58,6.58,0,0,0,1.78-.56l4.57-4.43c.73-.71-2.13-.24-1.91-.26-1.18.14-2.35.32-3.52.51A6.24,6.24,0,0,0,208.88,303.8Z"/><path class="cls-6" d="M208,300.7l-4.19,4.94c-.47.54,2.61.83,3,.33l3.73-4.74C211.09,300.6,208.39,300.29,208,300.7Z"/><path class="cls-6" d="M210.11,304.26l-4.59,4.89a1.36,1.36,0,0,0,1.12.05c.94-.18,1.87-.37,2.8-.59,1.17-.26,2.33-.54,3.49-.83a10.89,10.89,0,0,0,2.37-.75l4.78-4.59a1.35,1.35,0,0,0-1.1-.1c-1.32.18-2.64.39-3.95.64C213.9,303.19,211,303.28,210.11,304.26Z"/><path class="cls-6" d="M210.59,302.36,206,307.29a2.33,2.33,0,0,0,1.5.17c1.87-.08,3.74-.21,5.6-.36s3.73-.32,5.58-.53a2.32,2.32,0,0,0,1.46-.42l4.58-4.29a2.28,2.28,0,0,0-1.48-.25q-2.79,0-5.58.12c-1.86.06-3.71.15-5.57.28A2.23,2.23,0,0,0,210.59,302.36Z"/><path class="cls-6" d="M210.38,303.49l-4.47,4.85a1.1,1.1,0,0,0,1,.12q1.26-.15,2.52-.39c1-.17,2.09-.37,3.13-.58a8.27,8.27,0,0,0,2.14-.58l4.64-4.53a1.11,1.11,0,0,0-1-.18c-1.19.08-2.37.2-3.55.36C213.84,302.68,211.18,302.62,210.38,303.49Z"/><path class="cls-6" d="M206.81,305.65l-3.7,5c-.37.49,1.77.34,2.09-.17L208,306C208.48,305.23,207.09,305.27,206.81,305.65Z"/><path class="cls-6" d="M173.34,229.47l-4.06-7a2.79,2.79,0,0,0-.59,1.56c-.43,2-.83,4.05-1.19,6.09s-.73,4.07-1,6.11a2.8,2.8,0,0,0,0,1.67l3.46,6.78a2.85,2.85,0,0,0,.65-1.54q.77-3,1.43-6c.46-2,.88-4,1.27-6A2.86,2.86,0,0,0,173.34,229.47Z"/><path class="cls-6" d="M173.79,231.7l-4-6.95a1.81,1.81,0,0,0-.61,1.17q-.68,2.33-1.26,4.68c-.4,1.56-.77,3.13-1.1,4.71a1.78,1.78,0,0,0,0,1.32l3.47,6.7a1.78,1.78,0,0,0,.65-1.13c.53-1.51,1-3,1.47-4.57s.92-3.07,1.32-4.62A1.81,1.81,0,0,0,173.79,231.7Z"/><path class="cls-6" d="M173.84,226.12l-4-6.82c-.47-.8-.74,1.6-.72,1.46-.15,1-.27,2-.37,2.94a4.25,4.25,0,0,0,0,1.55l3.63,6.61c.43.79.84-1.47.81-1.37q.33-1.43.57-2.85A4.11,4.11,0,0,0,173.84,226.12Z"/><path class="cls-6" d="M174.33,230.27l-4.66-5.74c-.44-.56-1,.83-.7,1.18l4.61,5C173.93,231.1,174.65,230.67,174.33,230.27Z"/><path class="cls-6" d="M173.07,232.82l-4-6.93a2,2,0,0,0-.58,1.26q-.65,2.47-1.19,5t-1,5a2,2,0,0,0,0,1.39l3.45,6.7a2,2,0,0,0,.64-1.22q.75-2.43,1.4-4.89T173,234.2A1.94,1.94,0,0,0,173.07,232.82Z"/><path class="cls-6" d="M173.47,230.59l-4-7a2.59,2.59,0,0,0-.62,1.49q-.7,2.93-1.31,5.85t-1.15,5.89a2.72,2.72,0,0,0,0,1.62l3.45,6.74a2.6,2.6,0,0,0,.67-1.46c.55-1.91,1.07-3.84,1.55-5.77s1-3.86,1.39-5.8A2.7,2.7,0,0,0,173.47,230.59Z"/><path class="cls-6" d="M173.39,231.84l-3.94-6.92c-.41-.73-.75,1.2-.74,1.13-.18.81-.87,2.82-.45,3.64l3.56,6.81c.38.72.84-1.1.83-1.08.22-.77.42-1.55.6-2.33A3,3,0,0,0,173.39,231.84Z"/><path class="cls-6" d="M174.71,227.74l-4-6.75c-.44-.73-.79,1.27-.78,1.22-.18.84-.34,1.69-.47,2.55a3.25,3.25,0,0,0-.07,1.35L173,232.6c.4.71.85-1.1.86-1.12.25-.8.47-1.61.67-2.43A3.08,3.08,0,0,0,174.71,227.74Z"/><path class="cls-6" d="M173.51,233l-4-6.71a.92.92,0,0,0-.49.74c-.31,1-.58,2-.81,3.05-.21.86-1.08,3-.57,4l3.49,6.45a.87.87,0,0,0,.53-.69c.37-1,.71-1.95,1-2.94C172.91,236.13,174,233.82,173.51,233Z"/><path class="cls-6" d="M173.12,231.77l-4-6.94a2.28,2.28,0,0,0-.59,1.38c-.43,1.79-.82,3.6-1.18,5.41s-.72,3.62-1,5.44a2.27,2.27,0,0,0,0,1.5l3.45,6.73a2.32,2.32,0,0,0,.64-1.34c.5-1.77,1-3.54,1.41-5.33s.87-3.57,1.25-5.36A2.32,2.32,0,0,0,173.12,231.77Z"/><path class="cls-6" d="M174,232l-4-6.75a1,1,0,0,0-.51.79c-.34,1.08-.64,2.17-.91,3.26-.22.88-1.22,3.27-.7,4.25l3.49,6.49a1,1,0,0,0,.56-.75c.4-1,.78-2.09,1.11-3.16C173.24,235.47,174.48,232.9,174,232Z"/><path class="cls-6" d="M175,230.66l-4.72-5.77c-.39-.48-.94.41-.63.76l4.64,5.26C174.49,231.2,175.27,231,175,230.66Z"/><path class="cls-6" d="M100,236.71l-9.71-1.35a2.7,2.7,0,0,0,.71,1.48c1.14,1.67,2.32,3.32,3.52,4.95s2.41,3.26,3.66,4.86a2.68,2.68,0,0,0,1.19,1.12l9.16,1.67a2.67,2.67,0,0,0-.65-1.5q-1.6-2.56-3.3-5.08c-1.12-1.68-2.26-3.34-3.44-5A2.58,2.58,0,0,0,100,236.71Z"/><path class="cls-6" d="M101,238.87l-9.67-1.39a1.68,1.68,0,0,0,.52,1.15c.9,1.24,1.84,2.46,2.8,3.66s1.92,2.4,2.92,3.57a1.68,1.68,0,0,0,1,.77l9.2,1.62a1.61,1.61,0,0,0-.46-1.15q-1.26-1.92-2.61-3.76t-2.74-3.66A1.65,1.65,0,0,0,101,238.87Z"/><path class="cls-6" d="M98.68,233.38l-9.37-1.22c-.82-.11.37,1.42.41,1.47.51.76,1,1.5,1.6,2.23a3.64,3.64,0,0,0,1,1l9.4,1.43c.35,0-1.25-2.78-1.19-2.68C100.18,235.12,99.48,233.49,98.68,233.38Z"/><path class="cls-6" d="M97.72,237.92l-8.9-.39c-1-.05.15,1.36.71,1.36h8.33C98.53,238.9,98.22,237.94,97.72,237.92Z"/><path class="cls-6" d="M100.63,239.7,91,238.33a2.08,2.08,0,0,0,.7,1.23q1.68,2,3.43,3.93t3.54,3.83a2.11,2.11,0,0,0,1.15.83l9.22,1.66a2,2,0,0,0-.65-1.25q-1.57-2.06-3.24-4.05t-3.37-3.94A2,2,0,0,0,100.63,239.7Z"/><path class="cls-6" d="M100.49,237.79l-9.69-1.36a2.55,2.55,0,0,0,.7,1.42c1.12,1.59,2.28,3.15,3.46,4.7s2.37,3.09,3.59,4.61a2.55,2.55,0,0,0,1.18,1.05l9.16,1.67a2.43,2.43,0,0,0-.64-1.44q-1.57-2.44-3.25-4.82c-1.1-1.6-2.22-3.18-3.38-4.73A2.45,2.45,0,0,0,100.49,237.79Z"/><path class="cls-6" d="M99.4,239l-9.65-1.39c-.9-.13.78,1.49.66,1.36.64.66,1.3,1.29,2,1.9a3.66,3.66,0,0,0,1.15.85l9.42,1.63c.88.16-.67-1.51-.58-1.41-.6-.69-1.23-1.36-1.87-2A3.73,3.73,0,0,0,99.4,239Z"/><path class="cls-6" d="M99.65,234.84l-9.48-1.15c-.74-.09.21,1.16.25,1.22.34.53,1.37,2.44,2.11,2.53l9,1.14c.7.09,0-1.06-.11-1.19C101.2,236.92,100.31,234.92,99.65,234.84Z"/><path class="cls-6" d="M100.31,240.08l-9.25-1.25c-1-.14,1.17,1.92,1,1.78.88.92,1.79,1.82,2.71,2.7a7.19,7.19,0,0,0,1.54,1.27l9.13,1.48c.24,0,.35.06.26-.23-.26-.87-1.22-1.62-1.8-2.28-.77-.87-1.55-1.74-2.37-2.56A2.47,2.47,0,0,0,100.31,240.08Z"/><path class="cls-6" d="M100.4,238.74l-9.69-1.37a2.37,2.37,0,0,0,.72,1.33Q93.16,240.9,95,243c1.19,1.43,2.41,2.85,3.65,4.24a2.41,2.41,0,0,0,1.18.94l9.2,1.67a2.25,2.25,0,0,0-.66-1.35q-1.62-2.26-3.34-4.46t-3.46-4.36A2.25,2.25,0,0,0,100.4,238.74Z"/><path class="cls-6" d="M100.57,239.21l-9.52-1.27a.93.93,0,0,0,.35.84c.47.61,1,1.19,1.46,1.76.62.72,1.26,1.43,1.91,2.13A6.88,6.88,0,0,0,96.22,244l9.38,1.54a.94.94,0,0,0-.3-.85c-.61-.88-1.25-1.73-1.92-2.56C102.86,241.49,101.61,239.34,100.57,239.21Z"/><path class="cls-6" d="M98.2,238.24l-8.92-.41c-.71,0-.33,1,.17,1l8.7.18C98.61,239,98.72,238.26,98.2,238.24Z"/><path class="cls-6" d="M397.71,373.48,391,370.16a2.89,2.89,0,0,0,.28,1.65q1,3,2,5.87t2.18,5.82a2.75,2.75,0,0,0,.83,1.45l6.05,3.46a2.7,2.7,0,0,0-.2-1.65c-.55-2-1.14-4-1.76-5.93s-1.24-3.93-1.91-5.88A2.83,2.83,0,0,0,397.71,373.48Z"/><path class="cls-6" d="M398.51,375.81l-6.65-3.34a1.71,1.71,0,0,0,.14,1.27c.47,1.49,1,3,1.51,4.43s1.07,2.94,1.66,4.39a1.67,1.67,0,0,0,.7,1.06l6.06,3.42a1.68,1.68,0,0,0-.07-1.26c-.39-1.5-.82-3-1.28-4.46s-.91-3-1.42-4.42A1.69,1.69,0,0,0,398.51,375.81Z"/><path class="cls-6" d="M397,370l-6.38-3.1c-.8-.39.06,1.66.05,1.64.33.94.69,1.87,1.07,2.79a4.33,4.33,0,0,0,.72,1.38l6.09,3.23c.75.4,0-2.08-.11-2.31C398.17,372.75,397.9,370.44,397,370Z"/><path class="cls-6" d="M396.51,374.22l-6.37-2c-.65-.2-.21,1.36.27,1.47l5.83,1.38A.46.46,0,0,0,396.51,374.22Z"/><path class="cls-6" d="M398.1,376.79l-6.65-3.33a2,2,0,0,0,.25,1.38q.92,2.4,1.94,4.77t2.07,4.71a2,2,0,0,0,.81,1.14l6.08,3.45a2,2,0,0,0-.19-1.37q-.81-2.43-1.71-4.82T398.85,378A2,2,0,0,0,398.1,376.79Z"/><path class="cls-6" d="M398.07,374.65l-6.69-3.31a2.57,2.57,0,0,0,.25,1.58q.92,2.82,1.94,5.61c.67,1.87,1.36,3.72,2.09,5.57a2.64,2.64,0,0,0,.82,1.38l6,3.45a2.55,2.55,0,0,0-.18-1.58q-.79-2.85-1.69-5.67c-.58-1.88-1.19-3.76-1.83-5.62A2.62,2.62,0,0,0,398.07,374.65Z"/><path class="cls-6" d="M397.32,375.77l-6.58-3.31c-.78-.39.19,1.56.13,1.43q.56,1.16,1.17,2.28a3.24,3.24,0,0,0,.76,1.1l6.21,3.39c.75.42-.06-1.51,0-1.42-.3-.78-.63-1.56-1-2.33A3.15,3.15,0,0,0,397.32,375.77Z"/><path class="cls-6" d="M398,371.62l-6.53-3.13c-.72-.35-.08,1.33-.08,1.35.22.69.69,3,1.43,3.33l6,3.07c.67.34.23-1.2.21-1.29C399,374.36,398.69,371.93,398,371.62Z"/><path class="cls-6" d="M398,377,391.74,374c-.91-.44.37,2.09.32,2,.49,1.12,1,2.24,1.55,3.34a6.43,6.43,0,0,0,1,1.66l6,3.22c.2.11.29.17.32-.12a6.7,6.7,0,0,0-.83-2.68c-.39-1-.79-2.09-1.25-3.11C398.64,377.8,398.46,377.22,398,377Z"/><path class="cls-6" d="M397.93,375.73l-6.67-3.31a2.35,2.35,0,0,0,.28,1.48c.63,1.75,1.3,3.48,2,5.21s1.41,3.44,2.16,5.15a2.32,2.32,0,0,0,.83,1.26l6.06,3.46a2.35,2.35,0,0,0-.2-1.49c-.56-1.76-1.15-3.52-1.77-5.26s-1.25-3.48-1.92-5.21A2.38,2.38,0,0,0,397.93,375.73Z"/><path class="cls-6" d="M398.31,376.08l-6.53-3.16a1,1,0,0,0,.05.9c.34,1,.73,2,1.14,3s.9,3.12,1.89,3.66l6,3.24a1,1,0,0,0,0-.9c-.27-1-.58-2.05-.92-3.06C399.69,379,399.23,376.53,398.31,376.08Z"/><path class="cls-6" d="M397.06,374.54l-6.25-1.92c-.64-.19-.73.81-.26.93l6.13,1.64C397.05,375.29,397.54,374.68,397.06,374.54Z"/><path class="cls-6" d="M350.09,387.94l-8.5,6.14a2.22,2.22,0,0,0,1.36.61c1.78.47,3.56.9,5.36,1.3s3.59.8,5.4,1.14a2.24,2.24,0,0,0,1.49,0l8.29-5.57a2.32,2.32,0,0,0-1.33-.67c-1.75-.54-3.5-1.05-5.27-1.52s-3.54-.95-5.32-1.37A2.23,2.23,0,0,0,350.09,387.94Z"/><path class="cls-6" d="M350.86,389.54l-8.52,6.13a1.62,1.62,0,0,0,1.17.42c1.49.23,3,.42,4.5.58s3,.31,4.53.41a1.63,1.63,0,0,0,1.23-.16l8.36-5.65a1.63,1.63,0,0,0-1.14-.48c-1.47-.29-2.95-.54-4.44-.76s-3-.44-4.46-.6A1.68,1.68,0,0,0,350.86,389.54Z"/><path class="cls-6" d="M347.2,385.6,339,391.78c-.56.41,2.91,1.71,3.48,1.28l7.93-5.93C351,386.66,347.7,385.22,347.2,385.6Z"/><path class="cls-6" d="M346.64,391.5l-8.3,6.26c-.45.35.58.52.62.52a2.72,2.72,0,0,0,1.76-.22l8.09-6.26c.43-.33-.51-.51-.57-.52A2.38,2.38,0,0,0,346.64,391.5Z"/><path class="cls-6" d="M350.34,390.14l-8.51,6.14a2.24,2.24,0,0,0,1.44.39c1.82.17,3.65.31,5.48.41s3.65.2,5.49.25a2.32,2.32,0,0,0,1.47-.21l8.4-5.64a2.26,2.26,0,0,0-1.42-.43c-1.8-.24-3.61-.45-5.43-.61s-3.63-.34-5.45-.46A2.24,2.24,0,0,0,350.34,390.14Z"/><path class="cls-6" d="M350.51,388.67,342,394.81a2.26,2.26,0,0,0,1.38.55c1.8.38,3.6.73,5.42,1s3.62.62,5.44.88a2.3,2.3,0,0,0,1.49,0l8.32-5.57a2.31,2.31,0,0,0-1.36-.61q-2.65-.68-5.34-1.26T352,388.7A2.24,2.24,0,0,0,350.51,388.67Z"/><path class="cls-6" d="M348.59,390.56l-8.44,6.12c-.81.59,2,.52,1.76.52,1.13,0,2.25,0,3.38,0a5.51,5.51,0,0,0,1.76-.2l8.42-5.77c.81-.56-1.92-.62-1.74-.61-1.12-.07-2.25-.12-3.38-.14A5.45,5.45,0,0,0,348.59,390.56Z"/><path class="cls-6" d="M347.93,387.13l-8.16,6.18c-.53.4,2.61,1.34,3.16.92l7.75-6C351.29,387.78,348.4,386.77,347.93,387.13Z"/><path class="cls-6" d="M349.83,391.14l-8.2,5.93c-.93.68,2.65.46,2.37.47,1.51,0,3-.07,4.53-.14a9.71,9.71,0,0,0,2.34-.26l8.6-5.87a1.25,1.25,0,0,0-1-.31c-1.27-.08-2.53-.12-3.8-.13S350.88,390.38,349.83,391.14Z"/><path class="cls-6" d="M350.22,389.39l-8.51,6.14a2.3,2.3,0,0,0,1.44.47c1.85.28,3.7.53,5.56.73s3.71.42,5.57.58a2.42,2.42,0,0,0,1.51-.12l8.37-5.6a2.3,2.3,0,0,0-1.42-.53q-2.73-.53-5.49-.95c-1.84-.29-3.68-.56-5.53-.78A2.26,2.26,0,0,0,350.22,389.39Z"/><path class="cls-6" d="M350.06,390.35l-8.34,6.12a1,1,0,0,0,.91.32c.82.07,1.64.12,2.47.14,1,.05,2,.07,3.07.08a8.06,8.06,0,0,0,2.14-.13l8.47-5.84a1,1,0,0,0-.89-.37c-1.14-.16-2.29-.27-3.44-.35C353.5,390.24,351,389.67,350.06,390.35Z"/><path class="cls-6" d="M346.44,391.85l-7.34,6.21c-.79.66,1.18.83,1.53.51l6.77-6.17C348,391.88,346.81,391.54,346.44,391.85Z"/><path class="cls-6" d="M363.59,330,359,334.87a2.17,2.17,0,0,0,1.42.34c1.78.11,3.57.18,5.35.22s3.57.08,5.36.07a2.19,2.19,0,0,0,1.43-.26L377,331a2.15,2.15,0,0,0-1.38-.41c-1.77-.2-3.54-.36-5.31-.49s-3.54-.26-5.31-.33A2.13,2.13,0,0,0,363.59,330Z"/><path class="cls-6" d="M364.22,331.51l-4.65,4.9a1.63,1.63,0,0,0,1.23.18c1.52-.09,3-.21,4.55-.37s3-.32,4.53-.53a1.7,1.7,0,0,0,1.18-.41l4.57-4.34a1.59,1.59,0,0,0-1.21-.24c-1.51,0-3,.06-4.51.15s-3,.16-4.51.3A1.59,1.59,0,0,0,364.22,331.51Z"/><path class="cls-6" d="M360.22,328.13l-4.26,5c-.5.58,2.77,1.1,3.15.63l3.83-4.8C363.47,328.28,360.56,327.74,360.22,328.13Z"/><path class="cls-6" d="M360,334.14l-4.46,5c-.4.46.74.39.77.39a3.22,3.22,0,0,0,1.87-.59l4.29-5c.37-.44-.68-.4-.72-.4A3,3,0,0,0,360,334.14Z"/><path class="cls-6" d="M363.63,332.1,359,337a2.36,2.36,0,0,0,1.51.1q2.78-.28,5.54-.69t5.52-.84a2.33,2.33,0,0,0,1.43-.49l4.61-4.34a2.29,2.29,0,0,0-1.49-.16c-1.85.12-3.69.26-5.53.45s-3.69.37-5.52.61A2.33,2.33,0,0,0,363.63,332.1Z"/><path class="cls-6" d="M364,330.63l-4.62,4.92a2.19,2.19,0,0,0,1.45.26c1.81,0,3.62,0,5.43-.05s3.62-.11,5.43-.21a2.26,2.26,0,0,0,1.43-.34l4.54-4.26a2.21,2.21,0,0,0-1.43-.33c-1.79-.1-3.59-.17-5.39-.2s-3.6-.07-5.4-.05A2.23,2.23,0,0,0,364,330.63Z"/><path class="cls-6" d="M361.88,332.8l-4.54,4.87c-.7.76,2.16.11,1.93.15,1.17-.22,2.33-.47,3.5-.73a6.58,6.58,0,0,0,1.78-.56l4.57-4.43c.73-.71-2.13-.24-1.91-.26-1.18.14-2.35.32-3.52.51A6.24,6.24,0,0,0,361.88,332.8Z"/><path class="cls-6" d="M361,329.7l-4.19,4.94c-.47.54,2.61.83,3,.33l3.73-4.74C364.09,329.6,361.39,329.29,361,329.7Z"/><path class="cls-6" d="M363.11,333.26l-4.59,4.89a1.36,1.36,0,0,0,1.12.05c.94-.18,1.87-.37,2.8-.59,1.17-.26,2.33-.54,3.49-.83a10.89,10.89,0,0,0,2.37-.75l4.78-4.59a1.35,1.35,0,0,0-1.1-.1c-1.32.18-2.64.39-4,.64C366.9,332.19,364,332.28,363.11,333.26Z"/><path class="cls-6" d="M363.59,331.36,359,336.29a2.33,2.33,0,0,0,1.5.17c1.87-.08,3.74-.21,5.6-.36s3.73-.32,5.58-.53a2.32,2.32,0,0,0,1.46-.42l4.58-4.29a2.28,2.28,0,0,0-1.48-.25q-2.79,0-5.58.12c-1.86.06-3.71.15-5.57.28A2.23,2.23,0,0,0,363.59,331.36Z"/><path class="cls-6" d="M363.38,332.49l-4.47,4.85a1.1,1.1,0,0,0,1,.12q1.26-.15,2.52-.39c1.05-.17,2.09-.37,3.13-.58a8.27,8.27,0,0,0,2.14-.58l4.64-4.53a1.11,1.11,0,0,0-1-.18c-1.19.08-2.37.2-3.55.36C366.84,331.68,364.18,331.62,363.38,332.49Z"/><path class="cls-6" d="M359.81,334.65l-3.7,5c-.37.49,1.77.34,2.09-.17L361,335C361.48,334.23,360.09,334.27,359.81,334.65Z"/><path class="cls-6" d="M326.34,258.47l-4.06-7a2.79,2.79,0,0,0-.59,1.56c-.43,2-.83,4.05-1.19,6.09s-.73,4.07-1,6.11a2.8,2.8,0,0,0,0,1.67l3.46,6.78a2.85,2.85,0,0,0,.65-1.54q.76-3,1.43-6c.46-2,.88-4,1.27-6A2.86,2.86,0,0,0,326.34,258.47Z"/><path class="cls-6" d="M326.79,260.7l-4-6.95a1.81,1.81,0,0,0-.61,1.17q-.68,2.33-1.26,4.68c-.4,1.56-.77,3.13-1.1,4.71a1.78,1.78,0,0,0,0,1.32l3.47,6.7a1.78,1.78,0,0,0,.65-1.13c.53-1.51,1-3,1.47-4.57s.92-3.07,1.32-4.62A1.81,1.81,0,0,0,326.79,260.7Z"/><path class="cls-6" d="M326.84,255.12l-4-6.82c-.47-.8-.74,1.6-.72,1.46-.15,1-.27,2-.37,2.94a4.25,4.25,0,0,0,0,1.55l3.63,6.61c.43.79.84-1.47.81-1.37q.33-1.42.57-2.85A4.11,4.11,0,0,0,326.84,255.12Z"/><path class="cls-6" d="M327.33,259.27l-4.66-5.74c-.44-.56-1,.83-.7,1.18l4.61,5C326.93,260.1,327.65,259.67,327.33,259.27Z"/><path class="cls-6" d="M326.07,261.82l-4-6.93a2,2,0,0,0-.58,1.26q-.64,2.48-1.19,5t-1,5a2,2,0,0,0,0,1.39l3.45,6.7a2,2,0,0,0,.64-1.22q.75-2.43,1.4-4.89T326,263.2A1.94,1.94,0,0,0,326.07,261.82Z"/><path class="cls-6" d="M326.47,259.59l-4-6.95a2.59,2.59,0,0,0-.62,1.49q-.71,2.92-1.31,5.85t-1.15,5.89a2.72,2.72,0,0,0,0,1.62l3.45,6.74a2.6,2.6,0,0,0,.67-1.46c.55-1.91,1.07-3.84,1.55-5.77s1-3.86,1.39-5.8A2.7,2.7,0,0,0,326.47,259.59Z"/><path class="cls-6" d="M326.39,260.84l-3.94-6.92c-.41-.73-.75,1.2-.74,1.13-.18.81-.87,2.82-.45,3.64l3.56,6.81c.38.72.84-1.1.83-1.08.22-.77.42-1.55.6-2.33A3,3,0,0,0,326.39,260.84Z"/><path class="cls-6" d="M327.71,256.74l-4-6.75c-.44-.73-.79,1.27-.78,1.22-.18.84-.34,1.69-.47,2.55a3.25,3.25,0,0,0-.07,1.35L326,261.6c.4.71.85-1.1.86-1.12.25-.8.47-1.61.67-2.43A3.08,3.08,0,0,0,327.71,256.74Z"/><path class="cls-6" d="M326.51,262l-4-6.71a.92.92,0,0,0-.49.74c-.31,1-.58,2-.81,3.05-.21.86-1.08,3-.57,4l3.49,6.45a.87.87,0,0,0,.53-.69c.37-1,.71-1.95,1-2.94C325.91,265.13,327,262.82,326.51,262Z"/><path class="cls-6" d="M326.12,260.77l-4-6.94a2.28,2.28,0,0,0-.59,1.38c-.43,1.79-.82,3.6-1.18,5.41s-.72,3.62-1,5.44a2.27,2.27,0,0,0,0,1.5l3.45,6.73a2.32,2.32,0,0,0,.64-1.34c.5-1.77,1-3.54,1.41-5.33s.87-3.57,1.25-5.36A2.32,2.32,0,0,0,326.12,260.77Z"/><path class="cls-6" d="M327,261l-4-6.75a1,1,0,0,0-.51.79c-.34,1.08-.64,2.17-.91,3.26-.22.88-1.22,3.27-.7,4.25l3.49,6.49a1,1,0,0,0,.56-.75c.4-1,.78-2.09,1.11-3.16C326.24,264.47,327.48,261.9,327,261Z"/><path class="cls-6" d="M328,259.66l-4.72-5.77c-.39-.48-.94.41-.63.76l4.64,5.26C327.49,260.2,328.27,260,328,259.66Z"/><path class="cls-6" d="M253,265.71l-9.71-1.35a2.7,2.7,0,0,0,.71,1.48c1.14,1.67,2.32,3.32,3.52,5s2.41,3.26,3.66,4.86a2.68,2.68,0,0,0,1.19,1.12l9.16,1.67a2.67,2.67,0,0,0-.65-1.5q-1.61-2.56-3.3-5.08c-1.12-1.68-2.26-3.34-3.44-5A2.58,2.58,0,0,0,253,265.71Z"/><path class="cls-6" d="M254,267.87l-9.67-1.39a1.68,1.68,0,0,0,.52,1.15c.9,1.24,1.84,2.46,2.8,3.66s1.92,2.4,2.92,3.57a1.68,1.68,0,0,0,1,.77l9.2,1.62a1.61,1.61,0,0,0-.46-1.15q-1.26-1.92-2.61-3.76t-2.74-3.66A1.65,1.65,0,0,0,254,267.87Z"/><path class="cls-6" d="M251.68,262.38l-9.37-1.22c-.82-.11.37,1.42.41,1.47.51.76,1.05,1.5,1.6,2.23a3.64,3.64,0,0,0,1,1.05l9.4,1.43c.35.05-1.25-2.78-1.19-2.68C253.18,264.12,252.48,262.49,251.68,262.38Z"/><path class="cls-6" d="M250.72,266.92l-8.9-.39c-1,0,.15,1.36.71,1.36h8.33C251.53,267.9,251.22,266.94,250.72,266.92Z"/><path class="cls-6" d="M253.63,268.7,244,267.33a2.08,2.08,0,0,0,.7,1.23q1.68,2,3.43,3.93t3.54,3.83a2.11,2.11,0,0,0,1.15.83l9.22,1.66a2,2,0,0,0-.65-1.25q-1.58-2.06-3.24-4.05t-3.37-3.94A2,2,0,0,0,253.63,268.7Z"/><path class="cls-6" d="M253.49,266.79l-9.69-1.36a2.55,2.55,0,0,0,.7,1.42c1.12,1.59,2.28,3.15,3.46,4.7s2.37,3.09,3.59,4.61a2.55,2.55,0,0,0,1.18,1l9.16,1.67a2.43,2.43,0,0,0-.64-1.44q-1.58-2.44-3.25-4.82c-1.1-1.6-2.22-3.18-3.38-4.73A2.45,2.45,0,0,0,253.49,266.79Z"/><path class="cls-6" d="M252.4,268l-9.65-1.39c-.9-.13.78,1.49.66,1.36.64.66,1.3,1.29,2,1.9a3.66,3.66,0,0,0,1.15.85l9.42,1.63c.88.16-.67-1.51-.58-1.41-.6-.69-1.23-1.36-1.87-2A3.73,3.73,0,0,0,252.4,268Z"/><path class="cls-6" d="M252.65,263.84l-9.48-1.15c-.74-.09.21,1.16.25,1.22.34.53,1.37,2.44,2.11,2.53l9,1.14c.7.09,0-1.06-.11-1.19C254.2,265.92,253.31,263.92,252.65,263.84Z"/><path class="cls-6" d="M253.31,269.08l-9.25-1.25c-1-.14,1.17,1.92,1,1.78.88.92,1.79,1.82,2.71,2.7a7.19,7.19,0,0,0,1.54,1.27l9.13,1.48c.24,0,.35.06.26-.23-.26-.87-1.22-1.62-1.8-2.28-.77-.87-1.55-1.74-2.37-2.56A2.47,2.47,0,0,0,253.31,269.08Z"/><path class="cls-6" d="M253.4,267.74l-9.69-1.37a2.37,2.37,0,0,0,.72,1.33q1.73,2.21,3.53,4.34c1.19,1.43,2.41,2.85,3.65,4.24a2.41,2.41,0,0,0,1.18.94l9.2,1.67a2.25,2.25,0,0,0-.66-1.35q-1.62-2.27-3.34-4.46t-3.46-4.36A2.25,2.25,0,0,0,253.4,267.74Z"/><path class="cls-6" d="M253.57,268.21l-9.52-1.27a.93.93,0,0,0,.35.84c.47.61,1,1.19,1.46,1.76s1.26,1.43,1.91,2.13a6.88,6.88,0,0,0,1.45,1.35l9.38,1.54a.94.94,0,0,0-.3-.85c-.61-.88-1.25-1.73-1.92-2.56C255.86,270.49,254.61,268.34,253.57,268.21Z"/><path class="cls-6" d="M251.2,267.24l-8.92-.41c-.71,0-.33,1,.17,1l8.7.18C251.61,268,251.72,267.26,251.2,267.24Z"/></g></g></svg>